<mxfile host="app.diagrams.net" modified="2021-04-24T02:54:56.099Z" agent="5.0 (Macintosh; Intel Mac OS X 10_15_6) AppleWebKit/605.1.15 (KHTML, like Gecko) Version/14.0.3 Safari/605.1.15" etag="reF91Hdk_ukuI3WdCvkK" version="14.6.5" type="github">
  <diagram name="Page-1" id="52a04d89-c75d-2922-d76d-85b35f80e030">
    <mxGraphModel dx="1186" dy="652" grid="1" gridSize="10" guides="1" tooltips="1" connect="1" arrows="1" fold="1" page="1" pageScale="1" pageWidth="583" pageHeight="413" background="#ffffff" math="0" shadow="0">
      <root>
        <mxCell id="0" />
        <mxCell id="1" parent="0" />
        <mxCell id="IU5EWQq3x0bDF94e5dCT-16" style="edgeStyle=orthogonalEdgeStyle;orthogonalLoop=1;jettySize=auto;html=1;entryX=0.25;entryY=0;entryDx=0;entryDy=0;" parent="1" target="IU5EWQq3x0bDF94e5dCT-15" edge="1">
          <mxGeometry relative="1" as="geometry">
            <mxPoint x="374.96666666666647" y="420" as="sourcePoint" />
          </mxGeometry>
        </mxCell>
        <mxCell id="21ea969265ad0168-30" value="&lt;span&gt;应收Mysql&lt;/span&gt;" style="html=1;shadow=0;comic=0;labelBackgroundColor=none;strokeWidth=2;fontFamily=Verdana;fontSize=12;align=center;shape=mxgraph.ios7ui.horLines;" parent="1" vertex="1">
          <mxGeometry x="312.5" y="370" width="135" height="50" as="geometry" />
        </mxCell>
        <mxCell id="IU5EWQq3x0bDF94e5dCT-17" style="edgeStyle=orthogonalEdgeStyle;orthogonalLoop=1;jettySize=auto;html=1;entryX=1;entryY=0.5;entryDx=0;entryDy=0;" parent="1" source="17472293e6e8944d-4" target="IU5EWQq3x0bDF94e5dCT-15" edge="1">
          <mxGeometry relative="1" as="geometry">
            <Array as="points">
              <mxPoint x="545" y="495" />
            </Array>
          </mxGeometry>
        </mxCell>
        <mxCell id="17472293e6e8944d-4" value="&lt;span&gt;应付Mysql&lt;/span&gt;" style="html=1;shadow=0;comic=0;labelBackgroundColor=none;strokeWidth=2;fontFamily=Verdana;fontSize=12;align=center;shape=mxgraph.ios7ui.horLines;" parent="1" vertex="1">
          <mxGeometry x="477.5" y="370" width="135" height="50" as="geometry" />
        </mxCell>
        <mxCell id="IU5EWQq3x0bDF94e5dCT-6" style="edgeStyle=orthogonalEdgeStyle;orthogonalLoop=1;jettySize=auto;html=1;entryX=0.633;entryY=-0.1;entryDx=0;entryDy=0;entryPerimeter=0;" parent="1" source="17472293e6e8944d-29" target="1fdf3b25b50cf41e-25" edge="1">
          <mxGeometry relative="1" as="geometry" />
        </mxCell>
        <mxCell id="17472293e6e8944d-29" value="CN-Lms（应付数据）" style="whiteSpace=wrap;html=1;shadow=0;comic=0;labelBackgroundColor=none;strokeWidth=1;fontFamily=Verdana;fontSize=12;align=center;" parent="1" vertex="1">
          <mxGeometry x="487.5" y="140" width="120" height="50" as="geometry" />
        </mxCell>
        <mxCell id="IU5EWQq3x0bDF94e5dCT-5" style="edgeStyle=orthogonalEdgeStyle;orthogonalLoop=1;jettySize=auto;html=1;entryX=0.158;entryY=-0.04;entryDx=0;entryDy=0;entryPerimeter=0;" parent="1" source="17472293e6e8944d-30" target="1fdf3b25b50cf41e-25" edge="1">
          <mxGeometry relative="1" as="geometry" />
        </mxCell>
        <mxCell id="17472293e6e8944d-30" value="US-Tcms(应收数据）" style="whiteSpace=wrap;html=1;shadow=0;comic=0;labelBackgroundColor=none;strokeWidth=1;fontFamily=Verdana;fontSize=12;align=center;" parent="1" vertex="1">
          <mxGeometry x="327.5" y="140" width="120" height="50" as="geometry" />
        </mxCell>
        <mxCell id="IU5EWQq3x0bDF94e5dCT-49" value="" style="edgeStyle=orthogonalEdgeStyle;orthogonalLoop=1;jettySize=auto;html=1;" parent="1" source="1fdf3b25b50cf41e-6" target="IU5EWQq3x0bDF94e5dCT-41" edge="1">
          <mxGeometry relative="1" as="geometry" />
        </mxCell>
        <mxCell id="1fdf3b25b50cf41e-6" value="LMS Mysql" style="html=1;shadow=0;comic=0;labelBackgroundColor=none;strokeWidth=2;fontFamily=Verdana;fontSize=12;align=center;shape=mxgraph.ios7ui.horLines;" parent="1" vertex="1">
          <mxGeometry x="710" y="140" width="135" height="50" as="geometry" />
        </mxCell>
        <mxCell id="1fdf3b25b50cf41e-25" value="kafka" style="whiteSpace=wrap;html=1;shadow=0;comic=0;labelBackgroundColor=none;strokeWidth=1;fontFamily=Verdana;fontSize=12;align=center;" parent="1" vertex="1">
          <mxGeometry x="407.5" y="230" width="120" height="50" as="geometry" />
        </mxCell>
        <mxCell id="IU5EWQq3x0bDF94e5dCT-11" style="edgeStyle=orthogonalEdgeStyle;orthogonalLoop=1;jettySize=auto;html=1;entryX=0;entryY=0.5;entryDx=0;entryDy=0;" parent="1" source="IU5EWQq3x0bDF94e5dCT-8" target="1fdf3b25b50cf41e-25" edge="1">
          <mxGeometry relative="1" as="geometry" />
        </mxCell>
        <mxCell id="IU5EWQq3x0bDF94e5dCT-13" style="edgeStyle=orthogonalEdgeStyle;orthogonalLoop=1;jettySize=auto;html=1;exitX=0.5;exitY=1;exitDx=0;exitDy=0;entryX=0.526;entryY=-0.06;entryDx=0;entryDy=0;entryPerimeter=0;" parent="1" source="IU5EWQq3x0bDF94e5dCT-8" target="21ea969265ad0168-30" edge="1">
          <mxGeometry relative="1" as="geometry">
            <mxPoint x="372.4350000000002" y="370" as="targetPoint" />
          </mxGeometry>
        </mxCell>
        <mxCell id="IU5EWQq3x0bDF94e5dCT-8" value="FPS (应收消费组）" style="whiteSpace=wrap;html=1;shadow=0;comic=0;labelBackgroundColor=none;strokeWidth=1;fontFamily=Verdana;fontSize=12;align=center;" parent="1" vertex="1">
          <mxGeometry x="327.5" y="290" width="120" height="50" as="geometry" />
        </mxCell>
        <mxCell id="IU5EWQq3x0bDF94e5dCT-12" style="edgeStyle=orthogonalEdgeStyle;orthogonalLoop=1;jettySize=auto;html=1;exitX=0.75;exitY=0;exitDx=0;exitDy=0;entryX=1;entryY=0.5;entryDx=0;entryDy=0;" parent="1" source="IU5EWQq3x0bDF94e5dCT-10" target="1fdf3b25b50cf41e-25" edge="1">
          <mxGeometry relative="1" as="geometry" />
        </mxCell>
        <mxCell id="IU5EWQq3x0bDF94e5dCT-14" style="edgeStyle=orthogonalEdgeStyle;orthogonalLoop=1;jettySize=auto;html=1;exitX=0.5;exitY=1;exitDx=0;exitDy=0;entryX=0.5;entryY=0.04;entryDx=0;entryDy=0;entryPerimeter=0;" parent="1" source="IU5EWQq3x0bDF94e5dCT-10" target="17472293e6e8944d-4" edge="1">
          <mxGeometry relative="1" as="geometry" />
        </mxCell>
        <mxCell id="IU5EWQq3x0bDF94e5dCT-10" value="FPS (应付消费组）" style="whiteSpace=wrap;html=1;shadow=0;comic=0;labelBackgroundColor=none;strokeWidth=1;fontFamily=Verdana;fontSize=12;align=center;" parent="1" vertex="1">
          <mxGeometry x="477.5" y="290" width="120" height="50" as="geometry" />
        </mxCell>
        <mxCell id="IU5EWQq3x0bDF94e5dCT-18" style="edgeStyle=orthogonalEdgeStyle;orthogonalLoop=1;jettySize=auto;html=1;" parent="1" source="IU5EWQq3x0bDF94e5dCT-15" edge="1">
          <mxGeometry relative="1" as="geometry">
            <mxPoint x="380" y="550" as="targetPoint" />
          </mxGeometry>
        </mxCell>
        <mxCell id="IU5EWQq3x0bDF94e5dCT-15" value="Canal" style="whiteSpace=wrap;html=1;shadow=0;comic=0;labelBackgroundColor=none;strokeWidth=1;fontFamily=Verdana;fontSize=12;align=center;" parent="1" vertex="1">
          <mxGeometry x="320" y="470" width="120" height="50" as="geometry" />
        </mxCell>
        <mxCell id="IU5EWQq3x0bDF94e5dCT-19" value="kafka" style="whiteSpace=wrap;html=1;shadow=0;comic=0;labelBackgroundColor=none;strokeWidth=1;fontFamily=Verdana;fontSize=12;align=center;" parent="1" vertex="1">
          <mxGeometry x="320" y="550" width="120" height="50" as="geometry" />
        </mxCell>
        <mxCell id="IU5EWQq3x0bDF94e5dCT-22" style="edgeStyle=orthogonalEdgeStyle;orthogonalLoop=1;jettySize=auto;html=1;" parent="1" source="IU5EWQq3x0bDF94e5dCT-20" target="IU5EWQq3x0bDF94e5dCT-19" edge="1">
          <mxGeometry relative="1" as="geometry" />
        </mxCell>
        <mxCell id="IU5EWQq3x0bDF94e5dCT-25" style="edgeStyle=orthogonalEdgeStyle;orthogonalLoop=1;jettySize=auto;html=1;entryX=0.059;entryY=-0.067;entryDx=0;entryDy=0;entryPerimeter=0;" parent="1" source="IU5EWQq3x0bDF94e5dCT-20" target="IU5EWQq3x0bDF94e5dCT-24" edge="1">
          <mxGeometry relative="1" as="geometry">
            <mxPoint x="482.3699999999999" y="684.96" as="targetPoint" />
          </mxGeometry>
        </mxCell>
        <mxCell id="IU5EWQq3x0bDF94e5dCT-20" value="Fink 系统" style="whiteSpace=wrap;html=1;shadow=0;comic=0;labelBackgroundColor=none;strokeWidth=1;fontFamily=Verdana;fontSize=12;align=center;" parent="1" vertex="1">
          <mxGeometry x="497.5" y="550" width="120" height="50" as="geometry" />
        </mxCell>
        <mxCell id="IU5EWQq3x0bDF94e5dCT-24" value="深圳阿里云ES &amp;nbsp;数据节点8C32G(6节点) ;专有主节点4C16G(3节点) ;&amp;nbsp;" style="whiteSpace=wrap;html=1;shadow=0;comic=0;labelBackgroundColor=none;strokeWidth=1;fontFamily=Verdana;fontSize=12;align=center;fillColor=#d5e8d4;strokeColor=#82b366;" parent="1" vertex="1">
          <mxGeometry x="240" y="670" width="1320" height="70" as="geometry" />
        </mxCell>
        <mxCell id="IU5EWQq3x0bDF94e5dCT-29" style="edgeStyle=orthogonalEdgeStyle;orthogonalLoop=1;jettySize=auto;html=1;" parent="1" source="IU5EWQq3x0bDF94e5dCT-27" target="17472293e6e8944d-30" edge="1">
          <mxGeometry relative="1" as="geometry" />
        </mxCell>
        <mxCell id="IU5EWQq3x0bDF94e5dCT-30" style="edgeStyle=orthogonalEdgeStyle;orthogonalLoop=1;jettySize=auto;html=1;" parent="1" source="IU5EWQq3x0bDF94e5dCT-27" target="17472293e6e8944d-29" edge="1">
          <mxGeometry relative="1" as="geometry" />
        </mxCell>
        <mxCell id="IU5EWQq3x0bDF94e5dCT-27" value="1.Input FPS 系统" style="whiteSpace=wrap;html=1;shadow=0;comic=0;labelBackgroundColor=none;strokeWidth=1;fontFamily=Verdana;fontSize=12;align=center;" parent="1" vertex="1">
          <mxGeometry x="407.5" y="50" width="120" height="50" as="geometry" />
        </mxCell>
        <mxCell id="IU5EWQq3x0bDF94e5dCT-66" style="edgeStyle=orthogonalEdgeStyle;orthogonalLoop=1;jettySize=auto;html=1;entryX=0.541;entryY=0.029;entryDx=0;entryDy=0;entryPerimeter=0;" parent="1" source="IU5EWQq3x0bDF94e5dCT-31" target="IU5EWQq3x0bDF94e5dCT-24" edge="1">
          <mxGeometry relative="1" as="geometry" />
        </mxCell>
        <mxCell id="IU5EWQq3x0bDF94e5dCT-31" value="sov-ga (数据采集)" style="whiteSpace=wrap;html=1;shadow=0;comic=0;labelBackgroundColor=none;strokeWidth=1;fontFamily=Verdana;fontSize=12;align=center;" parent="1" vertex="1">
          <mxGeometry x="890" y="180" width="120" height="50" as="geometry" />
        </mxCell>
        <mxCell id="IU5EWQq3x0bDF94e5dCT-67" style="edgeStyle=orthogonalEdgeStyle;orthogonalLoop=1;jettySize=auto;html=1;entryX=0.636;entryY=-0.014;entryDx=0;entryDy=0;entryPerimeter=0;" parent="1" source="IU5EWQq3x0bDF94e5dCT-32" target="IU5EWQq3x0bDF94e5dCT-24" edge="1">
          <mxGeometry relative="1" as="geometry">
            <mxPoint x="1080" y="660" as="targetPoint" />
          </mxGeometry>
        </mxCell>
        <mxCell id="IU5EWQq3x0bDF94e5dCT-32" value="sov-api(数据加工)" style="whiteSpace=wrap;html=1;shadow=0;comic=0;labelBackgroundColor=none;strokeWidth=1;fontFamily=Verdana;fontSize=12;align=center;" parent="1" vertex="1">
          <mxGeometry x="1030" y="180" width="120" height="50" as="geometry" />
        </mxCell>
        <mxCell id="IU5EWQq3x0bDF94e5dCT-47" style="edgeStyle=orthogonalEdgeStyle;orthogonalLoop=1;jettySize=auto;html=1;entryX=0.5;entryY=0;entryDx=0;entryDy=0;" parent="1" source="IU5EWQq3x0bDF94e5dCT-33" target="IU5EWQq3x0bDF94e5dCT-31" edge="1">
          <mxGeometry relative="1" as="geometry">
            <Array as="points">
              <mxPoint x="990" y="140" />
              <mxPoint x="950" y="140" />
            </Array>
          </mxGeometry>
        </mxCell>
        <mxCell id="IU5EWQq3x0bDF94e5dCT-48" style="edgeStyle=orthogonalEdgeStyle;orthogonalLoop=1;jettySize=auto;html=1;exitX=0.75;exitY=1;exitDx=0;exitDy=0;" parent="1" source="IU5EWQq3x0bDF94e5dCT-33" target="IU5EWQq3x0bDF94e5dCT-32" edge="1">
          <mxGeometry relative="1" as="geometry" />
        </mxCell>
        <mxCell id="IU5EWQq3x0bDF94e5dCT-33" value="3.Input SOV 系统" style="whiteSpace=wrap;html=1;shadow=0;comic=0;labelBackgroundColor=none;strokeWidth=1;fontFamily=Verdana;fontSize=12;align=center;" parent="1" vertex="1">
          <mxGeometry x="950" y="50" width="120" height="50" as="geometry" />
        </mxCell>
        <mxCell id="IU5EWQq3x0bDF94e5dCT-35" style="edgeStyle=orthogonalEdgeStyle;orthogonalLoop=1;jettySize=auto;html=1;" parent="1" source="IU5EWQq3x0bDF94e5dCT-34" target="1fdf3b25b50cf41e-6" edge="1">
          <mxGeometry relative="1" as="geometry" />
        </mxCell>
        <mxCell id="IU5EWQq3x0bDF94e5dCT-36" style="edgeStyle=orthogonalEdgeStyle;orthogonalLoop=1;jettySize=auto;html=1;" parent="1" source="IU5EWQq3x0bDF94e5dCT-34" edge="1">
          <mxGeometry relative="1" as="geometry">
            <mxPoint x="777.5" y="310" as="targetPoint" />
          </mxGeometry>
        </mxCell>
        <mxCell id="IU5EWQq3x0bDF94e5dCT-34" value="CN-Maxwell" style="whiteSpace=wrap;html=1;shadow=0;comic=0;labelBackgroundColor=none;strokeWidth=1;fontFamily=Verdana;fontSize=12;align=center;" parent="1" vertex="1">
          <mxGeometry x="717.5" y="230" width="120" height="50" as="geometry" />
        </mxCell>
        <mxCell id="IU5EWQq3x0bDF94e5dCT-37" value="&lt;span style=&quot;font-style: normal; font-weight: 400; letter-spacing: normal; text-indent: 0px; text-transform: none; word-spacing: 0px; text-decoration: none; color: rgb(23, 26, 29); font-size: 14px; text-align: left; background-color: rgb(255, 255, 255); float: none; display: inline;&quot;&gt;RabbitMQ&lt;/span&gt;" style="whiteSpace=wrap;html=1;shadow=0;comic=0;labelBackgroundColor=none;strokeWidth=1;fontFamily=Verdana;fontSize=12;align=center;" parent="1" vertex="1">
          <mxGeometry x="717.5" y="312" width="120" height="50" as="geometry" />
        </mxCell>
        <mxCell id="IU5EWQq3x0bDF94e5dCT-39" style="edgeStyle=orthogonalEdgeStyle;orthogonalLoop=1;jettySize=auto;html=1;" parent="1" source="IU5EWQq3x0bDF94e5dCT-38" edge="1">
          <mxGeometry relative="1" as="geometry">
            <mxPoint x="778" y="671" as="targetPoint" />
            <Array as="points">
              <mxPoint x="778" y="671" />
            </Array>
          </mxGeometry>
        </mxCell>
        <mxCell id="IU5EWQq3x0bDF94e5dCT-40" value="" style="edgeStyle=orthogonalEdgeStyle;orthogonalLoop=1;jettySize=auto;html=1;" parent="1" source="IU5EWQq3x0bDF94e5dCT-38" target="IU5EWQq3x0bDF94e5dCT-37" edge="1">
          <mxGeometry relative="1" as="geometry" />
        </mxCell>
        <mxCell id="IU5EWQq3x0bDF94e5dCT-38" value="&lt;div style=&quot;text-align: left&quot;&gt;&lt;font color=&quot;#171a1d&quot;&gt;&lt;span style=&quot;font-size: 14px ; background-color: rgb(255 , 255 , 255)&quot;&gt;OrderClient&lt;/span&gt;&lt;/font&gt;&lt;/div&gt;" style="whiteSpace=wrap;html=1;shadow=0;comic=0;labelBackgroundColor=none;strokeWidth=1;fontFamily=Verdana;fontSize=12;align=center;" parent="1" vertex="1">
          <mxGeometry x="717.5" y="400" width="120" height="50" as="geometry" />
        </mxCell>
        <mxCell id="IU5EWQq3x0bDF94e5dCT-41" value="2.Input LMS 系统" style="whiteSpace=wrap;html=1;shadow=0;comic=0;labelBackgroundColor=none;strokeWidth=1;fontFamily=Verdana;fontSize=12;align=center;" parent="1" vertex="1">
          <mxGeometry x="717.5" y="50" width="120" height="50" as="geometry" />
        </mxCell>
        <mxCell id="IU5EWQq3x0bDF94e5dCT-50" value="&lt;span style=&quot;font-family: &amp;#34;verdana&amp;#34; ; text-align: center&quot;&gt;&amp;nbsp; &amp;nbsp; &amp;nbsp; &amp;nbsp; &amp;nbsp; 涉及系统&lt;br&gt;&lt;br&gt;1.FPS&amp;nbsp;财务处理系统&lt;/span&gt;&lt;br style=&quot;font-family: &amp;#34;verdana&amp;#34; ; text-align: center&quot;&gt;&lt;span style=&quot;font-family: &amp;#34;verdana&amp;#34; ; text-align: center&quot;&gt;2.LMS 物流渠道管理系统&lt;/span&gt;&lt;br style=&quot;font-family: &amp;#34;verdana&amp;#34; ; text-align: center&quot;&gt;&lt;span style=&quot;font-family: &amp;#34;verdana&amp;#34; ; text-align: center&quot;&gt;3.SOV 营运可视化系统&lt;br&gt;&lt;/span&gt;&lt;span style=&quot;font-family: &amp;#34;verdana&amp;#34; ; text-align: center&quot;&gt;4.TMS 转运业务管理系统&lt;/span&gt;&lt;br style=&quot;font-family: &amp;#34;verdana&amp;#34; ; text-align: center&quot;&gt;&lt;span style=&quot;font-family: &amp;#34;verdana&amp;#34; ; text-align: center&quot;&gt;5.PSC 仓配系统&lt;/span&gt;&lt;br style=&quot;font-family: &amp;#34;verdana&amp;#34; ; text-align: center&quot;&gt;&lt;span style=&quot;font-family: &amp;#34;verdana&amp;#34; ; text-align: center&quot;&gt;6.ODS&amp;nbsp;订单履约系统&lt;/span&gt;&lt;br style=&quot;font-family: &amp;#34;verdana&amp;#34; ; text-align: center&quot;&gt;&lt;span style=&quot;font-family: &amp;#34;verdana&amp;#34; ; text-align: center&quot;&gt;7.OMS 订单管理系统&lt;br&gt;8.DWH 数仓系统&lt;br&gt;&lt;br&gt;&lt;/span&gt;" style="text;html=1;strokeColor=none;fillColor=none;overflow=fill;" parent="1" vertex="1">
          <mxGeometry x="20" y="20" width="145" height="140" as="geometry" />
        </mxCell>
        <mxCell id="IU5EWQq3x0bDF94e5dCT-59" style="edgeStyle=orthogonalEdgeStyle;orthogonalLoop=1;jettySize=auto;html=1;" parent="1" source="IU5EWQq3x0bDF94e5dCT-56" target="IU5EWQq3x0bDF94e5dCT-58" edge="1">
          <mxGeometry relative="1" as="geometry" />
        </mxCell>
        <mxCell id="IU5EWQq3x0bDF94e5dCT-56" value="4.Input TMS 系统" style="whiteSpace=wrap;html=1;shadow=0;comic=0;labelBackgroundColor=none;strokeWidth=1;fontFamily=Verdana;fontSize=12;align=center;" parent="1" vertex="1">
          <mxGeometry x="1217.5" y="50" width="120" height="50" as="geometry" />
        </mxCell>
        <mxCell id="IU5EWQq3x0bDF94e5dCT-61" style="edgeStyle=orthogonalEdgeStyle;orthogonalLoop=1;jettySize=auto;html=1;entryX=0.504;entryY=1.02;entryDx=0;entryDy=0;entryPerimeter=0;" parent="1" source="IU5EWQq3x0bDF94e5dCT-57" target="IU5EWQq3x0bDF94e5dCT-58" edge="1">
          <mxGeometry relative="1" as="geometry" />
        </mxCell>
        <mxCell id="IU5EWQq3x0bDF94e5dCT-69" style="edgeStyle=orthogonalEdgeStyle;orthogonalLoop=1;jettySize=auto;html=1;" parent="1" source="IU5EWQq3x0bDF94e5dCT-57" target="IU5EWQq3x0bDF94e5dCT-68" edge="1">
          <mxGeometry relative="1" as="geometry" />
        </mxCell>
        <mxCell id="IU5EWQq3x0bDF94e5dCT-57" value="TMS 同步服务" style="whiteSpace=wrap;html=1;shadow=0;comic=0;labelBackgroundColor=none;strokeWidth=1;fontFamily=Verdana;fontSize=12;align=center;" parent="1" vertex="1">
          <mxGeometry x="1217.5" y="230" width="120" height="50" as="geometry" />
        </mxCell>
        <mxCell id="IU5EWQq3x0bDF94e5dCT-58" value="TMS SQLServer" style="html=1;shadow=0;comic=0;labelBackgroundColor=none;strokeWidth=2;fontFamily=Verdana;fontSize=12;align=center;shape=mxgraph.ios7ui.horLines;" parent="1" vertex="1">
          <mxGeometry x="1210" y="140" width="135" height="50" as="geometry" />
        </mxCell>
        <mxCell id="IU5EWQq3x0bDF94e5dCT-71" style="edgeStyle=orthogonalEdgeStyle;orthogonalLoop=1;jettySize=auto;html=1;entryX=0.5;entryY=0;entryDx=0;entryDy=0;" parent="1" source="IU5EWQq3x0bDF94e5dCT-68" target="IU5EWQq3x0bDF94e5dCT-70" edge="1">
          <mxGeometry relative="1" as="geometry" />
        </mxCell>
        <mxCell id="IU5EWQq3x0bDF94e5dCT-68" value="TOMS 系统" style="whiteSpace=wrap;html=1;shadow=0;comic=0;labelBackgroundColor=none;strokeWidth=1;fontFamily=Verdana;fontSize=12;align=center;" parent="1" vertex="1">
          <mxGeometry x="1217.5" y="330" width="120" height="50" as="geometry" />
        </mxCell>
        <mxCell id="IU5EWQq3x0bDF94e5dCT-109" style="edgeStyle=orthogonalEdgeStyle;curved=0;rounded=1;sketch=0;orthogonalLoop=1;jettySize=auto;html=1;entryX=0;entryY=0.5;entryDx=0;entryDy=0;" parent="1" source="IU5EWQq3x0bDF94e5dCT-70" target="IU5EWQq3x0bDF94e5dCT-107" edge="1">
          <mxGeometry relative="1" as="geometry" />
        </mxCell>
        <mxCell id="IU5EWQq3x0bDF94e5dCT-70" value="US-Maxwell" style="whiteSpace=wrap;html=1;shadow=0;comic=0;labelBackgroundColor=none;strokeWidth=1;fontFamily=Verdana;fontSize=12;align=center;" parent="1" vertex="1">
          <mxGeometry x="1217.5" y="420" width="120" height="50" as="geometry" />
        </mxCell>
        <mxCell id="IU5EWQq3x0bDF94e5dCT-75" style="edgeStyle=orthogonalEdgeStyle;orthogonalLoop=1;jettySize=auto;html=1;entryX=0.849;entryY=0.022;entryDx=0;entryDy=0;entryPerimeter=0;" parent="1" source="IU5EWQq3x0bDF94e5dCT-74" target="IU5EWQq3x0bDF94e5dCT-24" edge="1">
          <mxGeometry relative="1" as="geometry" />
        </mxCell>
        <mxCell id="IU5EWQq3x0bDF94e5dCT-74" value="TMS Order Client" style="whiteSpace=wrap;html=1;shadow=0;comic=0;labelBackgroundColor=none;strokeWidth=1;fontFamily=Verdana;fontSize=12;align=center;" parent="1" vertex="1">
          <mxGeometry x="1217.5" y="520" width="120" height="50" as="geometry" />
        </mxCell>
        <mxCell id="IU5EWQq3x0bDF94e5dCT-85" style="edgeStyle=orthogonalEdgeStyle;curved=0;rounded=1;sketch=0;orthogonalLoop=1;jettySize=auto;html=1;entryX=0.5;entryY=1;entryDx=0;entryDy=0;" parent="1" source="IU5EWQq3x0bDF94e5dCT-77" target="IU5EWQq3x0bDF94e5dCT-84" edge="1">
          <mxGeometry relative="1" as="geometry" />
        </mxCell>
        <mxCell id="IU5EWQq3x0bDF94e5dCT-87" style="edgeStyle=orthogonalEdgeStyle;curved=0;rounded=1;sketch=0;orthogonalLoop=1;jettySize=auto;html=1;" parent="1" source="IU5EWQq3x0bDF94e5dCT-77" target="IU5EWQq3x0bDF94e5dCT-86" edge="1">
          <mxGeometry relative="1" as="geometry" />
        </mxCell>
        <mxCell id="IU5EWQq3x0bDF94e5dCT-77" value="5.Input PSC 系统" style="whiteSpace=wrap;html=1;" parent="1" vertex="1">
          <mxGeometry x="357.5" y="1110" width="120" height="60" as="geometry" />
        </mxCell>
        <mxCell id="IU5EWQq3x0bDF94e5dCT-128" value="" style="edgeStyle=orthogonalEdgeStyle;curved=0;rounded=1;sketch=0;orthogonalLoop=1;jettySize=auto;html=1;" parent="1" source="IU5EWQq3x0bDF94e5dCT-78" target="IU5EWQq3x0bDF94e5dCT-124" edge="1">
          <mxGeometry relative="1" as="geometry" />
        </mxCell>
        <mxCell id="IU5EWQq3x0bDF94e5dCT-78" value="6.Input ODS 系统" style="whiteSpace=wrap;html=1;" parent="1" vertex="1">
          <mxGeometry x="725" y="1110" width="120" height="60" as="geometry" />
        </mxCell>
        <mxCell id="IU5EWQq3x0bDF94e5dCT-129" value="" style="edgeStyle=orthogonalEdgeStyle;curved=0;rounded=1;sketch=0;orthogonalLoop=1;jettySize=auto;html=1;" parent="1" source="IU5EWQq3x0bDF94e5dCT-79" target="IU5EWQq3x0bDF94e5dCT-123" edge="1">
          <mxGeometry relative="1" as="geometry" />
        </mxCell>
        <mxCell id="IU5EWQq3x0bDF94e5dCT-79" value="7.Input OMS 系统" style="whiteSpace=wrap;html=1;" parent="1" vertex="1">
          <mxGeometry x="970" y="1110" width="120" height="60" as="geometry" />
        </mxCell>
        <mxCell id="IU5EWQq3x0bDF94e5dCT-92" value="" style="edgeStyle=orthogonalEdgeStyle;curved=0;rounded=1;sketch=0;orthogonalLoop=1;jettySize=auto;html=1;" parent="1" source="IU5EWQq3x0bDF94e5dCT-84" target="IU5EWQq3x0bDF94e5dCT-91" edge="1">
          <mxGeometry relative="1" as="geometry" />
        </mxCell>
        <mxCell id="IU5EWQq3x0bDF94e5dCT-84" value="xxx-job&amp;nbsp;" style="whiteSpace=wrap;html=1;rounded=0;sketch=0;" parent="1" vertex="1">
          <mxGeometry x="280" y="930" width="120" height="60" as="geometry" />
        </mxCell>
        <mxCell id="IU5EWQq3x0bDF94e5dCT-86" value="&lt;span&gt;应收Mysql&lt;/span&gt;" style="html=1;shadow=0;comic=0;labelBackgroundColor=none;strokeWidth=2;fontFamily=Verdana;fontSize=12;align=center;shape=mxgraph.ios7ui.horLines;" parent="1" vertex="1">
          <mxGeometry x="460" y="935" width="135" height="50" as="geometry" />
        </mxCell>
        <mxCell id="IU5EWQq3x0bDF94e5dCT-89" value="" style="edgeStyle=orthogonalEdgeStyle;curved=0;rounded=1;sketch=0;orthogonalLoop=1;jettySize=auto;html=1;" parent="1" source="IU5EWQq3x0bDF94e5dCT-88" target="IU5EWQq3x0bDF94e5dCT-86" edge="1">
          <mxGeometry relative="1" as="geometry" />
        </mxCell>
        <mxCell id="IU5EWQq3x0bDF94e5dCT-90" style="edgeStyle=orthogonalEdgeStyle;curved=0;rounded=1;sketch=0;orthogonalLoop=1;jettySize=auto;html=1;entryX=0.204;entryY=1;entryDx=0;entryDy=0;entryPerimeter=0;" parent="1" source="IU5EWQq3x0bDF94e5dCT-88" target="IU5EWQq3x0bDF94e5dCT-24" edge="1">
          <mxGeometry relative="1" as="geometry" />
        </mxCell>
        <mxCell id="IU5EWQq3x0bDF94e5dCT-88" value="&lt;span style=&quot;color: rgb(23 , 26 , 29) ; font-family: , , &amp;#34;pingfang sc&amp;#34; , &amp;#34;hiragino sans gb&amp;#34; , &amp;#34;segoe ui&amp;#34; , , &amp;#34;roboto&amp;#34; , &amp;#34;droid sans&amp;#34; , &amp;#34;helvetica neue&amp;#34; , sans-serif ; font-size: 14px ; text-align: left ; background-color: rgb(255 , 255 , 255)&quot;&gt;product_server&lt;/span&gt;" style="whiteSpace=wrap;html=1;rounded=0;sketch=0;" parent="1" vertex="1">
          <mxGeometry x="467.5" y="815" width="120" height="60" as="geometry" />
        </mxCell>
        <mxCell id="IU5EWQq3x0bDF94e5dCT-95" style="edgeStyle=orthogonalEdgeStyle;curved=0;rounded=1;sketch=0;orthogonalLoop=1;jettySize=auto;html=1;entryX=0.057;entryY=1;entryDx=0;entryDy=0;entryPerimeter=0;" parent="1" source="IU5EWQq3x0bDF94e5dCT-91" target="IU5EWQq3x0bDF94e5dCT-24" edge="1">
          <mxGeometry relative="1" as="geometry" />
        </mxCell>
        <mxCell id="IU5EWQq3x0bDF94e5dCT-91" value="增量同步" style="whiteSpace=wrap;html=1;rounded=0;sketch=0;" parent="1" vertex="1">
          <mxGeometry x="280" y="815" width="120" height="60" as="geometry" />
        </mxCell>
        <mxCell id="IU5EWQq3x0bDF94e5dCT-104" style="edgeStyle=orthogonalEdgeStyle;curved=0;rounded=1;sketch=0;orthogonalLoop=1;jettySize=auto;html=1;exitX=0.75;exitY=0;exitDx=0;exitDy=0;entryX=0.467;entryY=1.04;entryDx=0;entryDy=0;entryPerimeter=0;" parent="1" source="IU5EWQq3x0bDF94e5dCT-96" target="IU5EWQq3x0bDF94e5dCT-102" edge="1">
          <mxGeometry relative="1" as="geometry" />
        </mxCell>
        <mxCell id="IU5EWQq3x0bDF94e5dCT-105" style="edgeStyle=orthogonalEdgeStyle;curved=0;rounded=1;sketch=0;orthogonalLoop=1;jettySize=auto;html=1;exitX=0.342;exitY=0.017;exitDx=0;exitDy=0;exitPerimeter=0;" parent="1" source="IU5EWQq3x0bDF94e5dCT-96" target="IU5EWQq3x0bDF94e5dCT-101" edge="1">
          <mxGeometry relative="1" as="geometry" />
        </mxCell>
        <mxCell id="IU5EWQq3x0bDF94e5dCT-96" value="8.Input DWH 系统" style="whiteSpace=wrap;html=1;" parent="1" vertex="1">
          <mxGeometry x="1280" y="1110" width="120" height="60" as="geometry" />
        </mxCell>
        <mxCell id="IU5EWQq3x0bDF94e5dCT-113" style="edgeStyle=orthogonalEdgeStyle;curved=0;rounded=1;sketch=0;orthogonalLoop=1;jettySize=auto;html=1;entryX=0;entryY=0.5;entryDx=0;entryDy=0;" parent="1" source="IU5EWQq3x0bDF94e5dCT-101" target="IU5EWQq3x0bDF94e5dCT-112" edge="1">
          <mxGeometry relative="1" as="geometry" />
        </mxCell>
        <mxCell id="IU5EWQq3x0bDF94e5dCT-101" value="&lt;span style=&quot;color: rgb(23 , 26 , 29) ; font-family: , , &amp;#34;pingfang sc&amp;#34; , &amp;#34;hiragino sans gb&amp;#34; , &amp;#34;segoe ui&amp;#34; , , &amp;#34;roboto&amp;#34; , &amp;#34;droid sans&amp;#34; , &amp;#34;helvetica neue&amp;#34; , sans-serif ; font-size: 14px ; text-align: left ; background-color: rgb(255 , 255 , 255)&quot;&gt;lms,ods数据库&lt;/span&gt;" style="html=1;shadow=0;comic=0;labelBackgroundColor=none;strokeWidth=2;fontFamily=Verdana;fontSize=12;align=center;shape=mxgraph.ios7ui.horLines;" parent="1" vertex="1">
          <mxGeometry x="1170" y="1020" width="135" height="50" as="geometry" />
        </mxCell>
        <mxCell id="IU5EWQq3x0bDF94e5dCT-114" style="edgeStyle=orthogonalEdgeStyle;curved=0;rounded=1;sketch=0;orthogonalLoop=1;jettySize=auto;html=1;entryX=1;entryY=0.5;entryDx=0;entryDy=0;" parent="1" source="IU5EWQq3x0bDF94e5dCT-102" target="IU5EWQq3x0bDF94e5dCT-112" edge="1">
          <mxGeometry relative="1" as="geometry" />
        </mxCell>
        <mxCell id="IU5EWQq3x0bDF94e5dCT-102" value="&lt;span style=&quot;color: rgb(23 , 26 , 29) ; font-size: 14px ; text-align: left ; background-color: rgb(255 , 255 , 255)&quot;&gt;owms数据库&lt;/span&gt;" style="html=1;shadow=0;comic=0;labelBackgroundColor=none;strokeWidth=2;fontFamily=Verdana;fontSize=12;align=center;shape=mxgraph.ios7ui.horLines;" parent="1" vertex="1">
          <mxGeometry x="1400" y="1020" width="135" height="50" as="geometry" />
        </mxCell>
        <mxCell id="IU5EWQq3x0bDF94e5dCT-110" style="edgeStyle=orthogonalEdgeStyle;curved=0;rounded=1;sketch=0;orthogonalLoop=1;jettySize=auto;html=1;entryX=1;entryY=0.75;entryDx=0;entryDy=0;" parent="1" source="IU5EWQq3x0bDF94e5dCT-107" target="IU5EWQq3x0bDF94e5dCT-74" edge="1">
          <mxGeometry relative="1" as="geometry">
            <Array as="points">
              <mxPoint x="1450" y="558" />
            </Array>
          </mxGeometry>
        </mxCell>
        <mxCell id="IU5EWQq3x0bDF94e5dCT-107" value="RabbitMQ" style="whiteSpace=wrap;html=1;shadow=0;comic=0;labelBackgroundColor=none;strokeWidth=1;fontFamily=Verdana;fontSize=12;align=center;" parent="1" vertex="1">
          <mxGeometry x="1390" y="420" width="120" height="50" as="geometry" />
        </mxCell>
        <mxCell id="IU5EWQq3x0bDF94e5dCT-116" style="edgeStyle=orthogonalEdgeStyle;curved=0;rounded=1;sketch=0;orthogonalLoop=1;jettySize=auto;html=1;entryX=0.5;entryY=1;entryDx=0;entryDy=0;" parent="1" source="IU5EWQq3x0bDF94e5dCT-112" target="IU5EWQq3x0bDF94e5dCT-115" edge="1">
          <mxGeometry relative="1" as="geometry" />
        </mxCell>
        <mxCell id="IU5EWQq3x0bDF94e5dCT-112" value="Canal" style="whiteSpace=wrap;html=1;shadow=0;comic=0;labelBackgroundColor=none;strokeWidth=1;fontFamily=Verdana;fontSize=12;align=center;" parent="1" vertex="1">
          <mxGeometry x="1280" y="935" width="120" height="50" as="geometry" />
        </mxCell>
        <mxCell id="IU5EWQq3x0bDF94e5dCT-115" value="Kafka" style="whiteSpace=wrap;html=1;shadow=0;comic=0;labelBackgroundColor=none;strokeWidth=1;fontFamily=Verdana;fontSize=12;align=center;" parent="1" vertex="1">
          <mxGeometry x="1177.5" y="840" width="120" height="50" as="geometry" />
        </mxCell>
        <mxCell id="IU5EWQq3x0bDF94e5dCT-119" style="edgeStyle=orthogonalEdgeStyle;curved=0;rounded=1;sketch=0;orthogonalLoop=1;jettySize=auto;html=1;entryX=1;entryY=0.5;entryDx=0;entryDy=0;" parent="1" source="IU5EWQq3x0bDF94e5dCT-118" target="IU5EWQq3x0bDF94e5dCT-115" edge="1">
          <mxGeometry relative="1" as="geometry" />
        </mxCell>
        <mxCell id="IU5EWQq3x0bDF94e5dCT-120" style="edgeStyle=orthogonalEdgeStyle;curved=0;rounded=1;sketch=0;orthogonalLoop=1;jettySize=auto;html=1;" parent="1" source="IU5EWQq3x0bDF94e5dCT-118" edge="1">
          <mxGeometry relative="1" as="geometry">
            <mxPoint x="1467.5" y="800" as="targetPoint" />
          </mxGeometry>
        </mxCell>
        <mxCell id="IU5EWQq3x0bDF94e5dCT-118" value="hbase" style="whiteSpace=wrap;html=1;shadow=0;comic=0;labelBackgroundColor=none;strokeWidth=1;fontFamily=Verdana;fontSize=12;align=center;" parent="1" vertex="1">
          <mxGeometry x="1407.5" y="840" width="120" height="50" as="geometry" />
        </mxCell>
        <mxCell id="IU5EWQq3x0bDF94e5dCT-122" style="edgeStyle=orthogonalEdgeStyle;curved=0;rounded=1;sketch=0;orthogonalLoop=1;jettySize=auto;html=1;exitX=0.5;exitY=0;exitDx=0;exitDy=0;entryX=0.927;entryY=1.014;entryDx=0;entryDy=0;entryPerimeter=0;" parent="1" source="IU5EWQq3x0bDF94e5dCT-121" target="IU5EWQq3x0bDF94e5dCT-24" edge="1">
          <mxGeometry relative="1" as="geometry" />
        </mxCell>
        <mxCell id="IU5EWQq3x0bDF94e5dCT-121" value="&lt;span style=&quot;color: rgb(23 , 26 , 29) ; font-family: , , &amp;#34;pingfang sc&amp;#34; , &amp;#34;hiragino sans gb&amp;#34; , &amp;#34;segoe ui&amp;#34; , , &amp;#34;roboto&amp;#34; , &amp;#34;droid sans&amp;#34; , &amp;#34;helvetica neue&amp;#34; , sans-serif ; font-size: 14px ; text-align: left ; background-color: rgb(255 , 255 , 255)&quot;&gt;hbase+es二级索引计算&lt;/span&gt;" style="whiteSpace=wrap;html=1;shadow=0;comic=0;labelBackgroundColor=none;strokeWidth=1;fontFamily=Verdana;fontSize=12;align=center;" parent="1" vertex="1">
          <mxGeometry x="1407.5" y="760" width="120" height="50" as="geometry" />
        </mxCell>
        <mxCell id="IU5EWQq3x0bDF94e5dCT-126" style="edgeStyle=orthogonalEdgeStyle;curved=0;rounded=1;sketch=0;orthogonalLoop=1;jettySize=auto;html=1;entryX=0.598;entryY=1;entryDx=0;entryDy=0;entryPerimeter=0;" parent="1" source="IU5EWQq3x0bDF94e5dCT-123" target="IU5EWQq3x0bDF94e5dCT-24" edge="1">
          <mxGeometry relative="1" as="geometry" />
        </mxCell>
        <mxCell id="IU5EWQq3x0bDF94e5dCT-123" value="php" style="whiteSpace=wrap;html=1;rounded=0;sketch=0;" parent="1" vertex="1">
          <mxGeometry x="970" y="985" width="120" height="60" as="geometry" />
        </mxCell>
        <mxCell id="IU5EWQq3x0bDF94e5dCT-125" style="edgeStyle=orthogonalEdgeStyle;curved=0;rounded=1;sketch=0;orthogonalLoop=1;jettySize=auto;html=1;" parent="1" source="IU5EWQq3x0bDF94e5dCT-124" target="IU5EWQq3x0bDF94e5dCT-24" edge="1">
          <mxGeometry relative="1" as="geometry" />
        </mxCell>
        <mxCell id="IU5EWQq3x0bDF94e5dCT-124" value="Java&amp;nbsp;" style="whiteSpace=wrap;html=1;rounded=0;sketch=0;" parent="1" vertex="1">
          <mxGeometry x="725" y="985" width="120" height="60" as="geometry" />
        </mxCell>
      </root>
    </mxGraphModel>
  </diagram>
</mxfile>
